<?xml version="1.0" encoding="utf-8"?>
<!-- Generator: Adobe Illustrator 15.0.0, SVG Export Plug-In . SVG Version: 6.00 Build 0)  -->
<!DOCTYPE svg PUBLIC "-//W3C//DTD SVG 1.1//EN" "http://www.w3.org/Graphics/SVG/1.1/DTD/svg11.dtd">
<svg version="1.1" id="Layer_1" xmlns="http://www.w3.org/2000/svg" xmlns:xlink="http://www.w3.org/1999/xlink" x="0px" y="0px"
	 width="250px" height="56.42px" viewBox="0 0 250 56.42" enable-background="new 0 0 250 56.42" xml:space="preserve">
<g>
	<path opacity="0.6" fill="#DBDADA" d="M247.109,57.223l2.646-43.701c0,0-4.943-4.123-21.451-4.506H112.027
		c0,0,0.056,41.627,0,42.381c23.582-0.938,77.415-1.753,82.819-1.304C194.847,50.093,236.528,48.944,247.109,57.223z"/>
	<path fill="#F15A29" d="M190.336,3.84l-78.309,1.048v46.509c4.494-0.166,44.234-1.631,78.458-1.332
		c50.465,0.434,52.29-3.667,52.29-3.667c0.6-7.918,4.411-45.599,4.411-45.599C235.784,4.444,190.336,3.84,190.336,3.84z"/>
	<g>
		<path fill="#F15A29" d="M9.217,11.862c4.699,0,8.306,0.827,10.819,2.476c2.52,1.652,3.778,4.36,3.778,8.117
			c0,3.789-1.275,6.525-3.822,8.206c-2.547,1.682-6.182,2.524-10.914,2.524H6.853v10.554h-7.097V12.678
			c1.548-0.299,3.186-0.516,4.916-0.638C6.397,11.924,7.912,11.862,9.217,11.862z M9.672,17.905c-0.517,0-1.021,0.017-1.526,0.05
			c-0.499,0.027-0.933,0.061-1.293,0.089v9.094h2.226c2.458,0,4.306-0.333,5.548-0.999c1.243-0.665,1.864-1.908,1.864-3.729
			c0-0.882-0.155-1.608-0.477-2.186c-0.316-0.572-0.771-1.038-1.365-1.388c-0.588-0.344-1.31-0.588-2.158-0.721
			C11.641,17.978,10.703,17.905,9.672,17.905z"/>
		<path fill="#F15A29" d="M45.277,25.817c-0.61-0.149-1.32-0.311-2.137-0.478c-0.821-0.166-1.703-0.244-2.641-0.244
			c-0.428,0-0.933,0.033-1.521,0.111c-0.594,0.078-1.038,0.155-1.343,0.25v18.282h-6.775V21.09c1.21-0.422,2.642-0.821,4.295-1.204
			c1.653-0.377,3.496-0.571,5.526-0.571c0.366,0,0.805,0.027,1.321,0.072c0.516,0.044,1.031,0.105,1.542,0.183
			c0.516,0.072,1.032,0.167,1.548,0.272c0.517,0.105,0.955,0.232,1.32,0.383L45.277,25.817z"/>
		<path fill="#F15A29" d="M74.241,31.732c0,1.881-0.272,3.602-0.815,5.16c-0.55,1.564-1.338,2.896-2.369,4
			c-1.027,1.11-2.265,1.965-3.701,2.569c-1.443,0.61-3.058,0.91-4.844,0.91c-1.76,0-3.357-0.3-4.8-0.91
			c-1.438-0.604-2.675-1.459-3.707-2.569c-1.026-1.104-1.831-2.436-2.408-4c-0.577-1.559-0.865-3.279-0.865-5.16
			s0.294-3.596,0.888-5.139c0.594-1.548,1.409-2.862,2.458-3.955c1.043-1.094,2.286-1.942,3.729-2.547
			c1.438-0.605,3.008-0.91,4.706-0.91c1.725,0,3.313,0.305,4.749,0.91c1.442,0.604,2.675,1.453,3.706,2.547
			c1.032,1.093,1.837,2.407,2.414,3.955C73.952,28.137,74.241,29.852,74.241,31.732z M67.327,31.732c0-2.092-0.41-3.74-1.248-4.933
			c-0.832-1.198-2.025-1.798-3.567-1.798c-1.549,0-2.747,0.6-3.596,1.798c-0.85,1.192-1.271,2.841-1.271,4.933
			s0.422,3.751,1.271,4.977c0.849,1.227,2.047,1.843,3.596,1.843c1.542,0,2.735-0.616,3.567-1.843
			C66.917,35.483,67.327,33.824,67.327,31.732z"/>
		<path fill="#F15A29" d="M102.845,42.963c-0.605,0.184-1.305,0.355-2.093,0.521c-0.787,0.166-1.614,0.311-2.479,0.433
			c-0.86,0.122-1.742,0.222-2.636,0.294c-0.894,0.078-1.748,0.117-2.569,0.117c-1.97,0-3.729-0.289-5.276-0.866
			c-1.543-0.577-2.847-1.397-3.906-2.475c-1.065-1.076-1.876-2.386-2.436-3.911c-0.561-1.532-0.838-3.252-0.838-5.166
			c0-1.937,0.238-3.685,0.721-5.249c0.488-1.56,1.188-2.886,2.098-3.979c0.904-1.093,2.02-1.926,3.34-2.503
			c1.321-0.576,2.83-0.865,4.528-0.865c0.938,0,1.775,0.094,2.519,0.277c0.744,0.178,1.493,0.438,2.253,0.771V9.543l6.775-1.093
			V42.963z M87.519,31.594c0,2.092,0.472,3.778,1.41,5.049c0.938,1.271,2.336,1.909,4.184,1.909c0.604,0,1.165-0.022,1.681-0.066
			c0.517-0.045,0.943-0.101,1.276-0.161V26.006c-0.427-0.277-0.977-0.505-1.659-0.688c-0.683-0.178-1.376-0.272-2.069-0.272
			C89.128,25.046,87.519,27.227,87.519,31.594z"/>
	</g>
	<linearGradient id="SVGID_1_" gradientUnits="userSpaceOnUse" x1="206.7158" y1="45.7764" x2="236.3094" y2="-5.4813">
		<stop  offset="0.4727" style="stop-color:#F15A29;stop-opacity:0.68"/>
		<stop  offset="0.9333" style="stop-color:#CF381E"/>
	</linearGradient>
	<path fill="url(#SVGID_1_)" d="M194.491,3.867l19.354,46.025c0.85-0.021,1.676-0.05,2.476-0.077c0.033,0,0.061,0,0.094,0
		c2.419-0.083,4.616-0.183,6.614-0.294c0.017,0,0.027,0,0.038,0c1.332-0.078,2.564-0.155,3.724-0.238c0.011,0,0.022,0,0.033,0
		c1.737-0.128,3.279-0.262,4.661-0.4c0.011,0,0.027-0.005,0.039-0.005c1.376-0.139,2.58-0.283,3.646-0.433c0.005,0,0.017,0,0.027,0
		c0.705-0.101,1.343-0.2,1.92-0.295c0.006,0,0.006,0,0.011,0c0.289-0.05,0.566-0.1,0.821-0.149c0.006,0,0.011,0,0.017,0
		c0.517-0.1,0.977-0.194,1.393-0.288c0.012,0,0.017,0,0.028-0.006c0.615-0.139,1.12-0.277,1.537-0.405
		c0.005,0,0.011-0.005,0.021-0.005c0.267-0.084,0.5-0.167,0.694-0.239c0.005-0.005,0.011-0.005,0.017-0.005
		c0.094-0.039,0.183-0.072,0.266-0.111c0.006,0,0.012-0.006,0.017-0.006c0.156-0.066,0.289-0.133,0.395-0.188
		c0-0.006,0.006-0.011,0.011-0.011c0.05-0.028,0.095-0.056,0.134-0.078c0.005-0.006,0.011-0.006,0.011-0.006
		c0.039-0.027,0.072-0.05,0.1-0.072h0.006c0.027-0.021,0.05-0.044,0.072-0.061c0.005-0.006,0.005-0.006,0.011-0.006
		c0.017-0.021,0.033-0.033,0.045-0.05c0.005,0,0.005,0,0.005,0c0.012-0.011,0.022-0.022,0.028-0.033c0,0,0-0.006,0.005-0.006
		c0.006-0.011,0.012-0.011,0.012-0.022c0.005,0,0.005,0,0.005,0v-0.005c0.6-7.918,4.411-45.599,4.411-45.599
		C237.893,3.768,205.972,3.917,194.491,3.867z"/>
	<path fill="#F5F5F5" d="M142.212,41.848c-2.03-3.606-4.228-7.164-6.592-10.687c-2.369-3.513-4.883-6.831-7.552-9.96v20.646h-7.002
		V10.337h5.775c0.999,0.999,2.109,2.23,3.318,3.685c1.215,1.453,2.447,3.007,3.707,4.66c1.259,1.654,2.508,3.363,3.75,5.139
		c1.243,1.775,2.414,3.473,3.508,5.115V10.337h7.046v31.511H142.212z"/>
	<path fill="#F5F5F5" d="M179.632,29.846c0,1.875-0.271,3.602-0.815,5.16c-0.544,1.564-1.337,2.896-2.363,4.001
		c-1.032,1.104-2.27,1.964-3.707,2.569c-1.438,0.604-3.057,0.909-4.844,0.909c-1.759,0-3.357-0.305-4.794-0.909
		c-1.442-0.605-2.681-1.465-3.712-2.569c-1.027-1.104-1.831-2.437-2.408-4.001c-0.572-1.559-0.866-3.285-0.866-5.16
		c0-1.881,0.3-3.596,0.888-5.138c0.594-1.548,1.415-2.863,2.459-3.956c1.048-1.094,2.285-1.942,3.729-2.547
		c1.437-0.611,3.007-0.91,4.705-0.91c1.731,0,3.313,0.299,4.755,0.91c1.438,0.604,2.669,1.453,3.701,2.547
		c1.032,1.093,1.837,2.408,2.414,3.956C179.344,26.25,179.632,27.965,179.632,29.846z M172.719,29.846
		c0-2.092-0.411-3.74-1.243-4.938c-0.838-1.192-2.025-1.792-3.573-1.792c-1.543,0-2.741,0.6-3.59,1.792
		c-0.85,1.198-1.276,2.847-1.276,4.938s0.427,3.751,1.276,4.978c0.849,1.226,2.047,1.842,3.59,1.842
		c1.548,0,2.735-0.616,3.573-1.842C172.308,33.597,172.719,31.938,172.719,29.846z"/>
	<path fill="#F5F5F5" d="M186.912,11.974l6.774-1.093v7.047h8.14v5.643h-8.14v8.412c0,1.426,0.25,2.563,0.749,3.412
		c0.5,0.844,1.51,1.271,3.024,1.271c0.727,0,1.476-0.066,2.253-0.205c0.771-0.139,1.476-0.322,2.113-0.566l0.955,5.271
		c-0.821,0.333-1.731,0.621-2.73,0.865c-0.998,0.244-2.23,0.366-3.684,0.366c-1.848,0-3.38-0.249-4.595-0.754
		c-1.21-0.5-2.181-1.193-2.907-2.087c-0.727-0.898-1.237-1.98-1.521-3.257c-0.288-1.271-0.433-2.68-0.433-4.229V11.974z"/>
	<path fill="#F5F5F5" d="M207.397,29.918c0-2.119,0.306-3.979,0.91-5.57c0.599-1.593,1.398-2.919,2.38-3.979
		c0.982-1.061,2.114-1.865,3.391-2.408c1.276-0.55,2.591-0.821,3.939-0.821c3.141,0,5.632,1.037,7.452,3.118
		c1.825,2.075,2.741,5.127,2.741,9.16c0,0.395-0.012,0.827-0.039,1.293c-0.033,0.473-0.062,0.889-0.089,1.254h-14.238
		c0.139,1.394,0.744,2.497,1.81,3.318c1.07,0.821,2.502,1.232,4.3,1.232c1.148,0,2.28-0.117,3.391-0.345
		c1.109-0.228,2.014-0.511,2.719-0.843l0.843,5.504c-0.338,0.184-0.787,0.361-1.348,0.544c-0.566,0.183-1.188,0.344-1.876,0.478
		c-0.688,0.139-1.426,0.249-2.214,0.344c-0.782,0.089-1.57,0.133-2.358,0.133c-1.991,0-3.729-0.316-5.198-0.954
		c-1.477-0.638-2.697-1.509-3.668-2.613s-1.687-2.419-2.147-3.935C207.636,33.313,207.397,31.677,207.397,29.918z M222.146,27.326
		c-0.027-0.576-0.122-1.137-0.277-1.687c-0.155-0.544-0.394-1.026-0.71-1.454c-0.327-0.421-0.732-0.771-1.227-1.043
		c-0.493-0.271-1.104-0.41-1.831-0.41c-0.704,0-1.304,0.133-1.814,0.389c-0.505,0.255-0.921,0.599-1.259,1.021
		c-0.339,0.428-0.6,0.921-0.783,1.476c-0.183,0.566-0.315,1.133-0.399,1.709H222.146z"/>
</g>
</svg>
